G04 #@! TF.GenerationSoftware,KiCad,Pcbnew,(5.1.0-838-gcbea5149c)*
G04 #@! TF.CreationDate,2019-07-14T10:46:31-04:00*
G04 #@! TF.ProjectId,555BlinkingLED,35353542-6c69-46e6-9b69-6e674c45442e,rev?*
G04 #@! TF.SameCoordinates,Original*
G04 #@! TF.FileFunction,Copper,L2,Bot*
G04 #@! TF.FilePolarity,Positive*
%FSLAX46Y46*%
G04 Gerber Fmt 4.6, Leading zero omitted, Abs format (unit mm)*
G04 Created by KiCad (PCBNEW (5.1.0-838-gcbea5149c)) date 2019-07-14 10:46:31*
%MOMM*%
%LPD*%
G04 APERTURE LIST*
%ADD10R,1.980000X3.960000*%
%ADD11O,1.980000X3.960000*%
%ADD12C,0.800000*%
%ADD13C,0.250000*%
G04 APERTURE END LIST*
D10*
X26035000Y-27305000D03*
D11*
X31035000Y-27305000D03*
D12*
X43180000Y-38735000D03*
X40005000Y-45720000D03*
X51435000Y-46355000D03*
X50800000Y-43180000D03*
X52705000Y-51435000D03*
X49530000Y-46990000D03*
X32385000Y-50800000D03*
X34290000Y-46990000D03*
D13*
X43180000Y-38735000D02*
X39370000Y-38735000D01*
X39370000Y-38735000D02*
X38100000Y-37465000D01*
X38100000Y-37465000D02*
X32385000Y-37465000D01*
X32385000Y-37465000D02*
X31115000Y-38735000D01*
X31115000Y-38735000D02*
X31115000Y-44450000D01*
X31115000Y-44450000D02*
X32385000Y-45720000D01*
X32385000Y-45720000D02*
X40005000Y-45720000D01*
X40005000Y-45720000D02*
X40005000Y-45720000D01*
X51435000Y-46355000D02*
X51435000Y-43815000D01*
X51435000Y-43815000D02*
X50800000Y-43180000D01*
X50800000Y-43180000D02*
X50800000Y-43180000D01*
X52705000Y-51435000D02*
X52705000Y-50800000D01*
X52705000Y-50800000D02*
X49530000Y-47625000D01*
X49530000Y-47625000D02*
X49530000Y-46990000D01*
X49530000Y-46990000D02*
X49530000Y-46990000D01*
X32385000Y-50800000D02*
X32385000Y-48895000D01*
X32385000Y-48895000D02*
X34290000Y-46990000D01*
X34290000Y-46990000D02*
X34290000Y-46990000D01*
M02*
