G04 #@! TF.GenerationSoftware,KiCad,Pcbnew,(5.1.0-838-gcbea5149c)*
G04 #@! TF.CreationDate,2019-07-14T10:46:31-04:00*
G04 #@! TF.ProjectId,555BlinkingLED,35353542-6c69-46e6-9b69-6e674c45442e,rev?*
G04 #@! TF.SameCoordinates,Original*
G04 #@! TF.FileFunction,Copper,L1,Top*
G04 #@! TF.FilePolarity,Positive*
%FSLAX46Y46*%
G04 Gerber Fmt 4.6, Leading zero omitted, Abs format (unit mm)*
G04 Created by KiCad (PCBNEW (5.1.0-838-gcbea5149c)) date 2019-07-14 10:46:31*
%MOMM*%
%LPD*%
G04 APERTURE LIST*
%ADD10R,1.550000X0.600000*%
%ADD11R,1.200000X0.900000*%
%ADD12R,1.980000X3.960000*%
%ADD13O,1.980000X3.960000*%
%ADD14R,1.200000X0.750000*%
%ADD15C,0.800000*%
%ADD16C,0.250000*%
G04 APERTURE END LIST*
D10*
X42385000Y-43180000D03*
X42385000Y-44450000D03*
X42385000Y-45720000D03*
X42385000Y-46990000D03*
X47785000Y-46990000D03*
X47785000Y-45720000D03*
X47785000Y-44450000D03*
X47785000Y-43180000D03*
D11*
X58590000Y-46355000D03*
X60790000Y-46355000D03*
X35730000Y-52070000D03*
X37930000Y-52070000D03*
X56050000Y-40005000D03*
X58250000Y-40005000D03*
D12*
X26035000Y-27305000D03*
D13*
X31035000Y-27305000D03*
D11*
X43985000Y-35560000D03*
X46185000Y-35560000D03*
D14*
X33340000Y-40640000D03*
X35240000Y-40640000D03*
D15*
X43180000Y-38735000D03*
X40005000Y-45720000D03*
X51435000Y-46355000D03*
X50800000Y-43180000D03*
X52705000Y-51435000D03*
X49530000Y-46990000D03*
X32385000Y-50800000D03*
X34290000Y-46990000D03*
D16*
X42385000Y-42630000D02*
X41275000Y-41520000D01*
X42385000Y-43180000D02*
X42385000Y-42630000D01*
X41275000Y-41520000D02*
X41275000Y-36830000D01*
X42545000Y-35560000D02*
X43985000Y-35560000D01*
X41275000Y-36830000D02*
X42545000Y-35560000D01*
X41275000Y-36830000D02*
X41275000Y-33020000D01*
X35560000Y-27305000D02*
X31035000Y-27305000D01*
X41275000Y-33020000D02*
X35560000Y-27305000D01*
X35240000Y-40640000D02*
X41275000Y-40640000D01*
X33340000Y-43500000D02*
X33340000Y-40640000D01*
X42385000Y-44450000D02*
X34290000Y-44450000D01*
X34290000Y-44450000D02*
X33340000Y-43500000D01*
X35730000Y-52070000D02*
X35730000Y-48725000D01*
X37465000Y-46990000D02*
X42385000Y-46990000D01*
X35730000Y-48725000D02*
X37465000Y-46990000D01*
X37930000Y-52070000D02*
X50165000Y-52070000D01*
X50165000Y-52070000D02*
X53975000Y-48260000D01*
X53975000Y-48260000D02*
X53975000Y-46355000D01*
X52070000Y-44450000D02*
X47785000Y-44450000D01*
X53975000Y-46355000D02*
X52070000Y-44450000D01*
X30945000Y-48725000D02*
X35730000Y-48725000D01*
X26035000Y-27305000D02*
X26035000Y-43815000D01*
X26035000Y-43815000D02*
X30945000Y-48725000D01*
X58250000Y-39305000D02*
X58250000Y-40005000D01*
X55880000Y-35560000D02*
X58250000Y-37930000D01*
X58250000Y-37930000D02*
X58250000Y-39305000D01*
X46185000Y-35560000D02*
X55880000Y-35560000D01*
X58590000Y-46355000D02*
X58420000Y-46355000D01*
X57740000Y-46355000D02*
X53975000Y-46355000D01*
X58590000Y-46355000D02*
X57740000Y-46355000D01*
X44450000Y-40005000D02*
X43180000Y-38735000D01*
X56050000Y-40005000D02*
X44450000Y-40005000D01*
X40005000Y-45720000D02*
X42385000Y-45720000D01*
X42385000Y-47540000D02*
X41910000Y-48015000D01*
X42385000Y-46990000D02*
X42385000Y-47540000D01*
X41910000Y-48015000D02*
X41910000Y-49530000D01*
X41910000Y-49530000D02*
X42545000Y-50165000D01*
X42545000Y-50165000D02*
X49530000Y-50165000D01*
X49530000Y-50165000D02*
X51435000Y-48260000D01*
X51435000Y-48260000D02*
X51435000Y-46355000D01*
X50800000Y-43180000D02*
X47785000Y-43180000D01*
X60790000Y-46355000D02*
X60790000Y-47160000D01*
X60790000Y-47160000D02*
X56515000Y-51435000D01*
X56515000Y-51435000D02*
X52705000Y-51435000D01*
X52705000Y-51435000D02*
X52705000Y-51435000D01*
X48260000Y-45720000D02*
X47785000Y-45720000D01*
X49530000Y-46990000D02*
X48260000Y-45720000D01*
X52705000Y-51435000D02*
X48260000Y-55880000D01*
X48260000Y-55880000D02*
X36195000Y-55880000D01*
X36195000Y-55880000D02*
X32385000Y-52070000D01*
X32385000Y-52070000D02*
X32385000Y-50800000D01*
X32385000Y-50800000D02*
X32385000Y-50800000D01*
X34290000Y-46990000D02*
X34290000Y-44450000D01*
M02*
