G04 #@! TF.GenerationSoftware,KiCad,Pcbnew,(5.1.0-838-gcbea5149c)*
G04 #@! TF.CreationDate,2019-07-14T10:46:31-04:00*
G04 #@! TF.ProjectId,555BlinkingLED,35353542-6c69-46e6-9b69-6e674c45442e,rev?*
G04 #@! TF.SameCoordinates,Original*
G04 #@! TF.FileFunction,Soldermask,Bot*
G04 #@! TF.FilePolarity,Negative*
%FSLAX46Y46*%
G04 Gerber Fmt 4.6, Leading zero omitted, Abs format (unit mm)*
G04 Created by KiCad (PCBNEW (5.1.0-838-gcbea5149c)) date 2019-07-14 10:46:31*
%MOMM*%
%LPD*%
G04 APERTURE LIST*
%ADD10C,0.100000*%
G04 APERTURE END LIST*
D10*
G36*
X31095933Y-25274626D02*
G01*
X31144279Y-25275259D01*
X31191703Y-25284692D01*
X31245334Y-25290329D01*
X31290800Y-25304403D01*
X31331929Y-25312584D01*
X31382825Y-25332890D01*
X31440354Y-25350698D01*
X31476648Y-25370322D01*
X31509631Y-25383481D01*
X31561430Y-25416163D01*
X31619936Y-25447797D01*
X31646830Y-25470046D01*
X31671440Y-25485573D01*
X31721185Y-25531557D01*
X31777237Y-25577927D01*
X31795280Y-25600050D01*
X31811934Y-25615445D01*
X31856397Y-25674987D01*
X31906266Y-25736133D01*
X31916672Y-25755704D01*
X31926411Y-25768746D01*
X31962273Y-25841468D01*
X32002108Y-25916387D01*
X32006670Y-25931496D01*
X32011028Y-25940334D01*
X32034994Y-26025310D01*
X32061114Y-26111824D01*
X32062031Y-26121176D01*
X32062962Y-26124477D01*
X32072008Y-26222931D01*
X32076000Y-26263640D01*
X32076000Y-28342915D01*
X32058178Y-28512483D01*
X32030209Y-28600653D01*
X32000888Y-28695081D01*
X31999292Y-28698114D01*
X31996449Y-28707077D01*
X31952892Y-28786306D01*
X31911803Y-28864404D01*
X31905704Y-28872140D01*
X31898098Y-28885976D01*
X31843531Y-28951007D01*
X31793356Y-29014653D01*
X31781125Y-29025380D01*
X31766873Y-29042364D01*
X31705375Y-29091810D01*
X31649510Y-29140802D01*
X31630019Y-29152398D01*
X31607771Y-29170286D01*
X31543305Y-29203988D01*
X31485086Y-29238625D01*
X31457785Y-29248697D01*
X31426852Y-29264868D01*
X31363046Y-29283647D01*
X31305591Y-29304843D01*
X31270598Y-29310856D01*
X31231008Y-29322508D01*
X31171017Y-29327968D01*
X31117022Y-29337246D01*
X31075100Y-29336697D01*
X31027698Y-29341011D01*
X30974067Y-29335374D01*
X30925721Y-29334741D01*
X30878297Y-29325308D01*
X30824666Y-29319671D01*
X30779200Y-29305597D01*
X30738071Y-29297416D01*
X30687175Y-29277110D01*
X30629646Y-29259302D01*
X30593353Y-29239679D01*
X30560369Y-29226519D01*
X30508568Y-29193836D01*
X30450065Y-29162203D01*
X30423171Y-29139955D01*
X30398561Y-29124427D01*
X30348816Y-29078443D01*
X30292764Y-29032073D01*
X30274721Y-29009950D01*
X30258067Y-28994555D01*
X30213604Y-28935013D01*
X30163735Y-28873867D01*
X30153329Y-28854296D01*
X30143590Y-28841254D01*
X30107728Y-28768532D01*
X30067893Y-28693613D01*
X30063331Y-28678504D01*
X30058973Y-28669666D01*
X30035007Y-28584690D01*
X30008887Y-28498176D01*
X30007970Y-28488824D01*
X30007039Y-28485523D01*
X29997993Y-28387069D01*
X29994001Y-28346360D01*
X29994000Y-26267086D01*
X30011822Y-26097518D01*
X30039791Y-26009348D01*
X30069112Y-25914920D01*
X30070708Y-25911887D01*
X30073551Y-25902924D01*
X30117113Y-25823684D01*
X30158197Y-25745597D01*
X30164294Y-25737863D01*
X30171902Y-25724024D01*
X30226475Y-25658986D01*
X30276644Y-25595347D01*
X30288875Y-25584620D01*
X30303127Y-25567636D01*
X30364625Y-25518190D01*
X30420490Y-25469198D01*
X30439981Y-25457602D01*
X30462229Y-25439714D01*
X30526695Y-25406012D01*
X30584914Y-25371375D01*
X30612215Y-25361303D01*
X30643148Y-25345132D01*
X30706954Y-25326353D01*
X30764409Y-25305157D01*
X30799402Y-25299144D01*
X30838992Y-25287492D01*
X30898983Y-25282032D01*
X30952978Y-25272754D01*
X30994900Y-25273303D01*
X31042302Y-25268989D01*
X31095933Y-25274626D01*
X31095933Y-25274626D01*
G37*
G36*
X27076000Y-29336000D02*
G01*
X24994000Y-29336000D01*
X24994000Y-25274000D01*
X27076000Y-25274000D01*
X27076000Y-29336000D01*
X27076000Y-29336000D01*
G37*
M02*
